<svg width="290" height="33" viewBox="0 0 290 33" fill="none" xmlns="http://www.w3.org/2000/svg">
<path d="M284.051 5.10619H198.05C197.398 4.67561 196.618 4.42198 195.777 4.42198H188.13C186.689 4.42379 185.546 4.85344 184.705 5.52411H180.028V3.80008H169.742V4.42739L147.37 4.40937L147.227 4.41431C145.506 4.51316 143.774 5.36434 142.875 6.86811V5.48616H136.243V3.76486L125.959 3.76306V4.37729H116.926C115.524 4.37729 114.404 4.78486 113.568 5.42119C113.251 5.19192 112.905 4.98793 112.518 4.83043C111.463 4.40031 110.456 4.37729 110.26 4.37729C110.26 4.37729 110.258 4.37729 110.257 4.37729H103.579C102.21 4.37729 101.111 4.76813 100.283 5.38237C99.4095 4.74692 98.3283 4.41524 97.2742 4.41524L95.4854 4.41431V0L85.1955 0.000924289L85.1964 5.48709H82.0763L82.0817 2.21192H71.781L71.7838 5.48709H70.3233V0.0731113H60.0014V4.3931H58.4495C57.0408 4.40123 55.9174 4.81823 55.0813 5.46495C54.2393 4.82548 53.1379 4.40211 51.8081 4.40211C51.2819 4.40211 31.8436 4.40211 31.8436 4.40211C30.449 4.40572 29.3354 4.81462 28.5038 5.45099C28.1934 5.22621 27.8564 5.02675 27.4775 4.87193C26.4203 4.43825 25.4121 4.41524 25.2171 4.41524C25.2171 4.41524 25.2162 4.41524 25.2153 4.41524L5.13147 4.3913C2.30199 4.3913 0 6.47501 0 9.03622L0.00904134 32.0004L11.877 32.0013C15.6029 32.0013 16.9962 29.103 16.9998 27.2711V26.5968L70.3233 26.5932V14.7286H71.8577V21.9826C71.8577 24.9956 74.4285 26.5882 76.9841 26.604H122.101V19.0378H125.959V21.974C125.959 23.8605 127.034 25.4193 128.836 26.1446C129.887 26.567 130.887 26.5891 131.081 26.5891C131.082 26.5891 131.083 26.5891 131.084 26.5891H137.75C139.747 26.5891 141.757 25.6098 142.535 23.7283C143.197 25.468 144.953 26.5986 147.257 26.5986C147.324 26.5986 167.328 26.5986 167.328 26.5986H167.334C168.979 26.5891 170.235 26.0259 171.091 25.1865C172.073 26.1094 173.466 26.604 174.867 26.6243H181.538H181.544C182.727 26.6198 183.916 26.2678 184.85 25.5931C185.677 26.1965 186.772 26.6013 188.133 26.6013H195.962C196.796 26.6013 197.543 26.3495 198.159 25.923L284.051 25.8905C285.959 25.8905 287.51 24.3362 287.51 22.4253V8.56234C287.51 6.65192 285.959 5.10619 284.051 5.10619Z" fill="black"/>
<path d="M97.2734 6.89268L93.0132 6.88949V2.47656L87.6687 2.47749L87.6696 24.1274H87.6732H93.0132V11.2059H94.3043V24.1274H99.6425V9.06439V9.06346C99.6425 6.89268 97.2734 6.89268 97.2734 6.89268Z" fill="white"/>
<path d="M133.771 12.2676H140.402V7.9629H133.772H133.771V6.2416L133.772 6.24072H128.432V7.9629V7.96471H127.105V12.2676H128.432C128.432 12.2676 128.432 21.876 128.432 21.9739C128.432 24.1154 131.084 24.1127 131.084 24.1127H137.749C137.749 24.1127 140.402 24.119 140.402 21.9739V13.3241H135.098V19.809H133.772H133.771V12.2676Z" fill="white"/>
<path d="M126.313 11.178V6.85449H116.926C116.926 6.85449 114.254 6.85449 114.254 9.03295V24.1276H119.63V16.5604H126.313V12.2351V12.2359V12.2351H119.63V11.178H126.313Z" fill="white"/>
<path d="M107.569 18.7434V19.8329H106.27V17.6535H112.915C112.915 17.6535 112.915 9.02847 112.915 9.0244C112.915 6.85177 110.257 6.85449 110.257 6.85449H103.579C103.579 6.85449 100.921 6.85449 100.921 9.03295V21.9807C100.921 24.1163 103.581 24.1226 103.581 24.1226L110.257 24.1276C110.257 24.1276 112.915 24.1163 112.915 21.9807V18.7434H107.569ZM107.569 11.178V13.3241H106.27V11.178H107.569Z" fill="white"/>
<path d="M86.3083 21.9823V13.3383H81.0007V19.8372H79.6718V12.2515H86.3083V7.9645H79.6006L79.606 4.68799H74.2557L74.2579 4.69206V7.9645H72.2776V12.2515H74.33V21.9823C74.33 24.1098 76.9842 24.1274 76.9842 24.1274H83.654C83.654 24.1274 86.3083 24.1152 86.3083 21.9823Z" fill="white"/>
<path d="M133.202 8.53398V8.53491H139.833L140.002 8.36475H139.833H133.371L133.202 8.53398Z" fill="#8E8E8E"/>
<path d="M133.202 11.6997L133.373 11.868H139.833H139.999L139.829 11.6997H133.202Z" fill="#8E8E8E"/>
<path d="M133.202 20.3783H135.665V13.8952H139.833L140.002 13.7269L135.498 13.7251V20.2077H133.371L133.202 20.3783Z" fill="#8E8E8E"/>
<path d="M139.058 23.128C138.313 23.5324 137.749 23.5405 137.749 23.5405C137.749 23.5405 130.888 23.5257 130.85 23.5257H130.849C130.849 23.5257 129.001 23.5527 129.001 21.8941V11.6995H127.674V8.53484H129.001V6.80993H133.201L133.37 6.64111H128.832V8.36468H127.506V11.8678H128.832C128.832 11.8678 128.832 21.7745 128.832 21.8941C128.832 23.7192 131.003 23.7148 131.003 23.7148L137.749 23.7102C137.762 23.7102 138.526 23.6768 139.179 23.2494L139.058 23.128Z" fill="#8E8E8E"/>
<path d="M125.907 10.7786L125.734 10.6084H119.062L119.233 10.7786H125.907Z" fill="#8E8E8E"/>
<path d="M125.742 15.9912H119.06L119.231 16.1618H125.912L125.742 15.9912Z" fill="#8E8E8E"/>
<path d="M116.926 7.25342C116.926 7.25342 114.653 7.25342 114.653 9.03291V23.7254H119.231L119.06 23.5548H114.823V9.03291C114.823 7.4294 116.926 7.42266 116.926 7.42266H125.742L125.912 7.25342H116.926Z" fill="#8E8E8E"/>
<path d="M119.231 12.6362L119.06 12.8051H125.742L125.912 12.6372L119.231 12.6362Z" fill="#8E8E8E"/>
<path d="M105.702 10.6094L105.87 10.7786H107.967V13.7252H105.87L105.702 13.8954H108.137V10.6094H105.702Z" fill="#8E8E8E"/>
<path d="M107.967 19.1455V20.234H105.87L105.702 20.4047H108.137V19.3129H112.347L112.515 19.1455H107.967Z" fill="#8E8E8E"/>
<path d="M111.541 23.1581C111.109 23.4298 110.695 23.5548 110.255 23.5548H103.579C103.579 23.5548 101.488 23.5548 101.488 21.8944V9.03291C101.488 7.42446 103.579 7.42266 103.579 7.42266H110.257C111.129 7.42266 111.683 7.89968 111.687 7.90148L111.805 7.78142C111.805 7.78142 111.192 7.25342 110.257 7.25342H103.579C103.579 7.25342 101.319 7.25342 101.319 9.03291C101.319 9.03291 101.319 21.5424 101.319 21.8944C101.319 23.7223 103.566 23.7254 103.566 23.7254H110.255C110.74 23.7254 111.191 23.5814 111.663 23.2813L111.541 23.1581Z" fill="#8E8E8E"/>
<path d="M105.87 17.2532H112.515L112.347 17.083L105.702 17.0848L105.87 17.2532Z" fill="#8E8E8E"/>
<path d="M79.0315 8.53491H85.732L85.9031 8.36475H79.2009L79.0315 8.53491Z" fill="#8E8E8E"/>
<path d="M79.273 11.8522H85.9022L85.7292 11.6816H79.1018L79.273 11.8522Z" fill="#8E8E8E"/>
<path d="M79.1038 20.4074H81.5697V13.9094H85.7321L85.9033 13.7397H81.4003V20.2396H79.2731L79.1038 20.4074Z" fill="#8E8E8E"/>
<path d="M85.0442 23.0876C85.0442 23.0876 84.4329 23.5547 83.654 23.5547H76.9841C76.9841 23.5547 74.8984 23.5547 74.8984 21.9824V11.6816H72.8465V8.53503H74.8263V5.25713L79.0307 5.25805L79.1992 5.08789H74.6592V8.36487H72.6753V11.8522H74.7304V21.9824C74.7304 23.7222 76.9774 23.7253 76.9774 23.7253H83.654C84.477 23.7253 85.1662 23.2117 85.1662 23.2117L85.0442 23.0876Z" fill="#8E8E8E"/>
<path d="M92.6126 7.2876L92.4446 7.45771C93.4654 7.45771 96.9899 7.45771 97.0124 7.45771C97.4683 7.46358 97.8697 7.57824 98.2414 7.81652L98.368 7.90137L98.4891 7.7795L98.3364 7.67663C97.9323 7.41982 97.5017 7.293 97.0124 7.29028C97.0057 7.29028 96.5322 7.29028 92.6126 7.29028V7.2876Z" fill="#8E8E8E"/>
<path d="M92.4447 23.5548H88.2421C88.2421 23.5548 88.2421 7.24297 88.2421 3.05026C90.1621 3.05206 92.4447 3.05386 92.4447 3.05386L92.6127 2.88194V2.87695L88.0728 2.87968L88.0737 23.7254H92.6127L92.4447 23.5548Z" fill="#8E8E8E"/>
<path d="M99.2392 23.7253L99.0698 23.5547H94.8749V10.6367H92.4446L92.6126 10.8033H94.7055V23.7253H99.2392Z" fill="#8E8E8E"/>
<path d="M154.034 6.88672H147.371H147.37C147.37 6.88672 144.716 7.03881 144.716 9.21999V12.4117L150.056 12.2542V11.1999H151.352V13.3414H147.371H147.37C147.37 13.3414 144.716 13.4971 144.716 15.6399V22.1267C144.716 24.2614 147.371 24.1097 147.371 24.1097H156.691V9.06157C156.691 6.88131 154.034 6.88672 154.034 6.88672ZM151.352 17.6551V19.8263H150.056V17.6551H151.352Z" fill="white"/>
<path d="M149.642 11.846L149.472 11.669L145.285 11.6763V9.06178C145.285 7.4524 147.371 7.45693 147.371 7.45693H154.036C154.81 7.45693 155.323 7.84144 155.323 7.84144L155.445 7.71823C155.445 7.71823 154.865 7.28857 154.036 7.28857H147.371C147.371 7.28857 145.118 7.2877 145.118 9.06178V11.846H149.642Z" fill="#8E8E8E"/>
<path d="M156.097 23.5305L147.37 23.539C147.37 23.539 145.285 23.5336 145.285 21.9685V15.4817C145.285 13.9103 147.371 13.9111 147.371 13.9111H151.918V10.6211H149.489L149.653 10.7908H151.748V13.7437H147.371C147.371 13.7437 145.118 13.7446 145.118 15.4817V21.9685C145.118 23.706 147.37 23.7078 147.37 23.7078H156.266L156.097 23.5305Z" fill="#8E8E8E"/>
<path d="M149.477 17.084L149.649 17.2533H151.748V20.2351H149.642L149.472 20.4038H151.918V17.084H149.477Z" fill="#8E8E8E"/>
<path d="M169.97 21.9727C169.97 21.8829 169.972 6.90385 169.972 6.90385H164.638V19.8213H163.348L163.347 6.88037H158.014V21.9497C158.014 24.1065 160.664 24.1215 160.664 24.1215H167.321C167.321 24.1215 169.97 24.1065 169.97 21.9727Z" fill="white"/>
<path d="M167.321 23.5528H160.664C160.664 23.5528 158.583 23.5302 158.583 21.9727V7.4499L162.778 7.45216L162.943 7.28339L158.414 7.27979V21.9727C158.414 23.7075 160.664 23.7229 160.664 23.7229H167.321C167.985 23.7229 168.526 23.4052 168.742 23.2644L168.62 23.1412C168.425 23.2662 167.985 23.5528 167.321 23.5528Z" fill="#8E8E8E"/>
<path d="M169.403 7.30273H165.207H165.04V7.47243V20.2252H162.947L162.779 20.3921H165.207V7.47243H169.403V7.47784L169.573 7.30541V7.30273H169.403Z" fill="#8E8E8E"/>
<path d="M177.555 12.3055H184.186V8.00084H177.555V6.27773V6.27686H172.214V8.00084H170.888V12.3055H172.214V22.0123H172.216C172.216 24.1069 174.867 24.1479 174.867 24.1479H181.532C181.532 24.1479 184.186 24.1367 184.186 22.0123V13.3611H178.88V19.8451H177.555V12.3055Z" fill="white"/>
<path d="M176.987 8.57161H183.617L183.785 8.40283H177.156L176.987 8.57161Z" fill="#8E8E8E"/>
<path d="M177.156 11.9043H183.783L183.613 11.7368H176.987L177.156 11.9043Z" fill="#8E8E8E"/>
<path d="M176.987 20.4146H179.449V13.9296H183.618L183.785 13.7649L179.28 13.7622V20.2444H177.156L176.987 20.4146Z" fill="#8E8E8E"/>
<path d="M182.841 23.1647C182.196 23.5529 181.532 23.5786 181.532 23.5786H175.355C175.355 23.5786 172.785 23.5303 172.785 21.9295V11.7366H171.457V8.57154H172.785V6.8489H176.985L177.153 6.6792H172.614V8.40277H171.29V11.904H172.614C172.614 11.904 172.614 21.7499 172.614 21.9295C172.614 23.7077 175.351 23.7474 175.351 23.7474H181.532C181.789 23.7474 182.449 23.6093 182.965 23.2879L182.841 23.1647Z" fill="#8E8E8E"/>
<path d="M194.813 6.89893H188.133C188.133 6.89893 185.474 6.90073 185.474 9.06791V21.9637C185.474 24.103 188.133 24.103 188.133 24.103H194.813C194.813 24.103 197.474 24.0985 197.474 21.9637C197.474 21.5932 197.474 9.36082 197.474 9.06791C197.474 6.88132 194.813 6.89893 194.813 6.89893ZM190.826 11.2058H192.122V19.8263H190.826V11.2058Z" fill="white"/>
<path d="M196.15 23.105C195.543 23.5405 194.817 23.5333 194.817 23.5333H188.408C188.408 23.5333 186.043 23.5302 186.043 21.7321C186.043 21.5615 186.043 9.39416 186.043 9.06784C186.043 7.45486 188.126 7.46522 188.126 7.46522H194.813C195.688 7.46522 196.234 7.93549 196.236 7.93642L196.356 7.81728C196.346 7.80961 195.73 7.29736 194.814 7.29736H194.813H188.126C188.126 7.29736 185.872 7.28831 185.872 9.09085C185.872 9.39777 185.872 21.5697 185.872 21.7321C185.872 23.7075 188.408 23.7112 188.408 23.7035H194.817C194.817 23.7035 195.673 23.6944 196.273 23.2273L196.15 23.105Z" fill="#8E8E8E"/>
<path d="M190.427 10.8069H192.522V20.2276H190.427L190.256 20.3977H192.692V10.6367H190.257L190.427 10.8069Z" fill="#8E8E8E"/>
<path d="M5.13153 6.86816C3.52014 6.86816 2.47231 8.02353 2.47231 9.03627L2.47144 22.0047C2.47144 24.1304 5.14052 24.1453 5.14052 24.1453H9.14934H9.15026V25.233H2.47144V29.5263L2.47771 29.5236L11.877 29.5263V29.5245C14.5236 29.5245 14.5272 27.2711 14.5272 27.2711V6.86816H5.13153ZM7.84702 11.1967H9.14934V19.8497H7.84836H7.84702V11.1967Z" fill="white"/>
<path d="M9.54881 10.7987H9.55061V20.2452H7.45002L7.2793 20.4135H9.72V10.6309H9.71912L9.54881 10.7987Z" fill="#8E8E8E"/>
<path d="M13.2871 28.462C13.2799 28.4683 13.2696 28.4737 13.2614 28.4796L13.2533 28.4868C13.0092 28.6488 12.7812 28.7639 12.5596 28.8424C12.3281 28.9223 12.0996 28.9593 11.8555 28.9593H3.03822V25.7979H9.72018V23.5779H5.14513C3.03282 23.5779 3.03822 21.9983 3.03822 21.9983V9.06182C3.03822 9.06182 2.98955 7.64876 5.0334 7.43756L13.9606 7.43303V7.43396L14.1282 7.26606V7.26514H13.9606L5.0334 7.26786H5.02528L5.01809 7.26879C2.83954 7.49487 2.87063 9.05146 2.87063 9.06635V21.9983C2.87063 21.9983 2.86657 23.7466 5.14513 23.7466H9.55079V25.6296H2.87063V29.1299H11.8555C12.1222 29.1299 12.3699 29.088 12.6141 29.0027C12.8537 28.9196 13.0938 28.7964 13.3475 28.6276L13.352 28.6249L13.3556 28.6231L13.3632 28.6154C13.379 28.6037 13.3939 28.5915 13.4083 28.5802L13.2871 28.462Z" fill="#8E8E8E"/>
<path d="M54.4607 24.1154V9.0664H54.4597C54.4597 7.41414 52.6389 6.89062 51.8082 6.89062C50.0198 6.89062 48.6999 7.26519 47.8296 7.97782V6.89289H42.4932V24.1154H47.8296V11.2061H49.1234V24.1154H54.4607Z" fill="white"/>
<path d="M48.1863 8.41939C48.562 8.11248 49.0485 7.87827 49.6283 7.71717C50.245 7.54654 50.9784 7.46169 51.8082 7.46169C52.3289 7.46169 52.769 7.60343 53.1947 7.91168L53.3186 7.79388C52.8596 7.45088 52.3798 7.29199 51.8082 7.29199C50.964 7.29199 50.2139 7.37957 49.5851 7.55468C48.9782 7.72077 48.4723 7.96719 48.0791 8.28759C48.0791 8.28759 47.7647 8.54755 47.4272 8.82151V7.29199H42.8909V23.7149H47.4245L47.2534 23.5452H43.0612V7.46169H47.2596V9.17759C47.6741 8.84004 48.1863 8.41939 48.1863 8.41939Z" fill="#8E8E8E"/>
<path d="M53.889 23.5407V23.5452H49.6923V10.6367L49.5229 10.8069V23.7149H54.0584V23.7104L53.889 23.5407Z" fill="#8E8E8E"/>
<path d="M62.4741 2.5498V6.86979H58.463C58.463 6.86979 55.7913 6.88514 55.7913 9.04691V21.973C55.7913 24.0978 58.463 24.1154 58.463 24.1154H67.8511V2.5498H62.4741ZM62.4097 19.8929H61.1056V11.1983H62.4106L62.4097 19.8929Z" fill="white"/>
<path d="M67.2799 23.5454H58.4631C58.4631 23.5454 56.363 23.5328 56.363 21.973V9.04519C56.363 7.45791 58.4631 7.4385 58.4631 7.4385C58.4631 7.4385 62.5346 7.4385 63.0432 7.4385V3.11989H67.2799V3.12669L67.4489 2.95338V2.9502H62.8747V7.26884L58.4631 7.27065C58.4631 7.27065 56.1936 7.2792 56.1936 9.03886V21.973C56.1936 23.6993 58.4631 23.7151 58.4631 23.7151H67.4471L67.2799 23.5454Z" fill="#8E8E8E"/>
<path d="M62.8079 10.7972V20.2915H60.7078L60.5366 20.4621H62.9773V10.6284L62.8079 10.7972Z" fill="#8E8E8E"/>
<path d="M20.0555 24.116H21.2375V17.6708H22.5268V24.116H27.8668V16.5823C27.874 15.6521 27.201 15.3091 27.201 15.3091C27.201 15.3091 27.8659 15.0469 27.8668 14.4403V9.06882C27.8668 6.89031 25.2153 6.89258 25.2153 6.89258H15.8953V24.1197H20.0555V24.116ZM21.2357 11.2058L22.5268 11.2112V13.3513H21.2357V11.2058Z" fill="white"/>
<path d="M22.9273 10.8102L22.9282 13.7546H20.8353L20.6677 13.9234H23.0985V10.6396L22.9273 10.8102Z" fill="#8E8E8E"/>
<path d="M25.2153 7.29218H16.2971V23.7186H20.8308L20.6614 23.5494H16.4656V7.46188H25.2153C25.2153 7.46188 25.9135 7.42444 26.7082 7.97005L26.805 7.83377C26.0293 7.26602 25.2153 7.29218 25.2153 7.29218Z" fill="#8E8E8E"/>
<path d="M38.5144 6.87891H31.85C31.85 6.87891 29.1958 6.88704 29.1958 9.05334V12.2464H34.5367H34.5349V11.1926H35.8296V13.3331H31.85C31.85 13.3331 29.1958 13.3367 29.1958 15.4755V21.9632C29.1958 24.0979 31.85 24.1033 31.85 24.1033H41.1714V9.05334C41.1714 6.87891 38.5144 6.87891 38.5144 6.87891ZM35.8296 17.6472V19.819H34.5367V17.6472H35.8296Z" fill="white"/>
<path d="M34.1204 11.8395V11.8309L33.9524 11.6698H29.7656V9.05309C29.7656 7.45767 31.85 7.4482 31.85 7.4482H38.5153C39.2969 7.4482 39.8028 7.83275 39.8028 7.83275L39.9239 7.70996C39.9239 7.70996 39.3505 7.28076 38.5153 7.28076H31.85C31.85 7.28076 29.5962 7.27896 29.5962 9.05309V11.8395H34.1204Z" fill="#8E8E8E"/>
<path d="M40.5767 23.5327H31.85C31.85 23.5327 29.7656 23.5327 29.7656 21.963V15.4754C29.7656 13.9075 31.85 13.9048 31.85 13.9048H36.3976V10.6147H33.9663L34.1335 10.7853H36.2282V13.736H31.85C31.85 13.736 29.5962 13.736 29.5962 15.4754V21.963C29.5962 23.6992 31.85 23.6992 31.85 23.6992H40.7443L40.5767 23.5327Z" fill="#8E8E8E"/>
<path d="M33.9569 17.0742L34.1272 17.2448H36.2282V20.2262H34.1204L33.9524 20.3923V20.3968H36.3976V17.0742H33.9569Z" fill="#8E8E8E"/>
<path d="M23.0909 23.5494V17.106L22.9229 17.2757V23.7186H27.4569L27.2853 23.5494H23.0909Z" fill="#8E8E8E"/>
<path d="M232.788 8.56248V22.4255C232.788 22.8461 232.446 23.1882 232.026 23.1882H230.009C229.692 23.1882 229.285 23.0194 229.063 22.7942L222.622 16.2853V22.4255C222.622 22.8461 222.28 23.1882 221.86 23.1882H218.777C218.357 23.1882 218.016 22.8461 218.016 22.4255V8.56248C218.016 8.14183 218.357 7.79883 218.777 7.79883H220.791C221.107 7.79883 221.513 7.96853 221.737 8.19285L228.18 14.6732V8.56248C228.18 8.14183 228.521 7.79883 228.941 7.79883H232.026C232.446 7.79883 232.788 8.14183 232.788 8.56248ZM246.375 18.7964H239.307C239.279 18.7964 239.254 18.7712 239.254 18.7437V8.56248C239.254 8.14183 238.912 7.79883 238.492 7.79883H235.164C234.744 7.79883 234.402 8.14183 234.402 8.56248V22.4255C234.402 22.8461 234.744 23.1882 235.164 23.1882H246.375C246.795 23.1882 247.137 22.8461 247.137 22.4255V19.5587C247.137 19.1381 246.795 18.7964 246.375 18.7964ZM252.808 7.79883H249.477C249.059 7.79883 248.716 8.14183 248.716 8.56248V22.4255C248.716 22.8461 249.058 23.1882 249.477 23.1882H252.808C253.228 23.1882 253.569 22.8461 253.569 22.4255V8.56248C253.569 8.14183 253.228 7.79883 252.808 7.79883ZM269.19 7.79883H266.104C265.683 7.79883 265.343 8.14183 265.343 8.56248V14.6732L258.9 8.19373C258.676 7.96853 258.27 7.79883 257.955 7.79883H255.941C255.519 7.79883 255.178 8.14183 255.178 8.56248V22.4255C255.178 22.8461 255.519 23.1882 255.941 23.1882H259.024C259.443 23.1882 259.785 22.8461 259.785 22.4255V16.2853L266.227 22.7942C266.451 23.0194 266.856 23.1882 267.172 23.1882H269.19C269.609 23.1882 269.951 22.8461 269.951 22.4255V8.56248C269.951 8.14183 269.609 7.79883 269.19 7.79883ZM284.051 12.0073C284.472 12.0073 284.813 11.6648 284.813 11.2451V8.56248C284.813 8.14183 284.472 7.79883 284.051 7.79883H272.308C271.888 7.79883 271.548 8.14183 271.548 8.56248V22.4255C271.548 22.8461 271.888 23.1882 272.308 23.1882H284.051C284.472 23.1882 284.813 22.8461 284.813 22.4255V19.5596C284.813 19.1381 284.472 18.7964 284.051 18.7964H276.4V17.4953H280.521C280.939 17.4953 281.282 17.1546 281.282 16.7339V14.0513C281.282 13.6307 280.94 13.2882 280.521 13.2882H276.4V12.0073H284.051ZM216.418 10.0572V20.9479C216.418 22.1885 215.412 23.1972 214.174 23.1972H203.301C202.063 23.1972 201.056 22.1885 201.056 20.9479V10.0572C201.056 8.81744 202.063 7.80835 203.301 7.80835H214.174C215.412 7.80835 216.418 8.81744 216.418 10.0572ZM211.567 12.5597C211.567 12.3003 211.354 12.0854 211.094 12.0854H206.381C206.121 12.0854 205.908 12.3003 205.908 12.5597V18.4015C205.908 18.662 206.121 18.875 206.381 18.875H211.094C211.354 18.875 211.567 18.662 211.567 18.4015V12.5597Z" fill="#CA0000"/>
<path d="M288.623 7.91215V8.7728H288.503V7.91215H288.197V7.79883H288.929V7.91215H288.623Z" fill="black"/>
<path d="M290 8.7728H289.882V7.95771L289.598 8.7728H289.47L289.185 7.95771V8.7728H289.064V7.79883H289.248L289.536 8.62112L289.821 7.79883H290V8.7728H290Z" fill="black"/>
</svg>
